<?xml version="1.0" encoding="UTF-8" standalone="no"?>
<!-- Created with Inkscape (http://www.inkscape.org/) -->

<svg
   width="72mm"
   height="72mm"
   viewBox="0 0 72 71.999999"
   version="1.1"
   id="svg5"
   xml:space="preserve"
   sodipodi:docname="massagetable.svg"
   inkscape:version="1.2 (dc2aedaf03, 2022-05-15)"
   xmlns:inkscape="http://www.inkscape.org/namespaces/inkscape"
   xmlns:sodipodi="http://sodipodi.sourceforge.net/DTD/sodipodi-0.dtd"
   xmlns="http://www.w3.org/2000/svg"
   xmlns:svg="http://www.w3.org/2000/svg"><sodipodi:namedview
     id="namedview7"
     pagecolor="#ffffff"
     bordercolor="#666666"
     borderopacity="1.0"
     inkscape:showpageshadow="2"
     inkscape:pageopacity="0.0"
     inkscape:pagecheckerboard="0"
     inkscape:deskcolor="#d1d1d1"
     inkscape:document-units="mm"
     showgrid="false"
     inkscape:zoom="3.209532"
     inkscape:cx="149.08716"
     inkscape:cy="128.21184"
     inkscape:window-width="1920"
     inkscape:window-height="991"
     inkscape:window-x="-9"
     inkscape:window-y="-9"
     inkscape:window-maximized="1"
     inkscape:current-layer="layer1" /><defs
     id="defs2" /><g
     inkscape:label="Camada 1"
     inkscape:groupmode="layer"
     id="layer1"
     transform="translate(-72.114023,-176.55409)"><path
       style="fill:#000000;stroke-width:0.155351"
       d="m 87.187666,232.94695 c -3.70963,-1.21703 -4.19883,-6.12898 -0.787152,-7.90359 1.507045,-0.7839 3.042292,-0.71007 4.380872,0.21069 0.563363,0.38751 0.563363,0.38751 3.417731,-0.93 1.569907,-0.72464 4.53217,-2.08877 6.582813,-3.03142 5.19748,-2.38918 5.7809,-1.61533 -4.815904,-6.38792 -7.318745,-3.29623 -5.743906,-2.90264 -11.967348,-2.99096 -6.799212,-0.0965 -7.570946,-0.34466 -8.467573,-2.72282 -1.321857,-3.50601 0.590338,-6.32759 4.433716,-6.54228 3.089612,-0.17258 5.086556,-2.00217 3.456572,-3.1669 -2.9361,-2.09804 -3.309331,-4.76587 -0.921546,-6.5871 2.069552,-1.5785 3.11564,-1.28464 8.133687,2.28484 5.53637,3.93818 5.795147,4.26695 5.345533,6.79145 -0.117102,0.65752 -0.117102,0.65752 20.985063,0.69908 21.10216,0.0416 21.10216,0.0416 21.91838,0.4717 3.22205,1.69803 2.87525,7.30038 -0.52584,8.49483 -0.44405,0.15594 -2.1433,0.23683 -6.50443,0.30964 l -5.90336,0.0985 -3.41774,1.60044 c -1.87975,0.88024 -4.22167,1.96761 -5.20427,2.41637 -7.44389,3.39974 -7.07602,2.98298 -3.88379,4.39997 0.9826,0.43616 2.97498,1.32992 4.42752,1.98612 6.82719,3.08429 7.13745,3.21182 7.37919,3.03322 3.48422,-2.57417 8.11165,0.47289 6.92374,4.55914 -1.3856,4.76631 -8.27399,3.64981 -8.3745,-1.35736 -0.0251,-1.24914 -0.0251,-1.24914 -1.50091,-1.89501 -0.81171,-0.35522 -1.86034,-0.8225 -2.33027,-1.03838 -9.2771,-4.26182 -9.54915,-4.36338 -10.34171,-3.86076 -0.99875,0.63339 -2.28875,0.66648 -3.30625,0.0848 -0.89359,-0.51084 -0.63071,-0.57538 -4.06729,0.99852 -8.853705,4.05487 -9.70363,4.46785 -9.644005,4.68605 0.837172,3.06344 -2.444715,6.2655 -5.420929,5.28908 z m 2.556733,-2.51931 c 1.276622,-1.1209 0.982093,-3.01096 -0.565713,-3.63027 -1.851254,-0.74073 -3.491026,1.05006 -2.698448,2.94696 0.502886,1.20358 2.254083,1.57016 3.264161,0.68331 z m 39.498151,0.17583 c 1.62435,-0.99042 1.10026,-3.62 -0.79225,-3.97504 -0.66001,-0.12382 -1.72035,0.31023 -2.11631,0.86631 -1.36277,1.91384 0.90065,4.33303 2.90856,3.10873 z m -20.56038,-10.64046 c 1.1357,-1.05252 -0.29326,-2.73967 -1.50987,-1.78268 -0.54977,0.43245 -0.56259,1.24776 -0.028,1.78233 0.48475,0.48476 1.01508,0.48488 1.53789,3.1e-4 z m -2.8047,-3.50615 c 1.20085,-0.94458 3.33734,-0.89563 4.15975,0.0953 0.31753,0.38259 0.1832,0.43561 7.60035,-2.99963 0.64082,-0.2968 1.52578,-0.67544 1.96658,-0.84143 1.95146,-0.73487 1.78344,-0.75504 -6.41392,-0.76978 -4.17582,-0.008 -7.80213,-0.0168 -8.05846,-0.0207 -3.62331,-0.0546 -10.052489,0.0642 -9.933138,0.18351 0.138962,0.13896 2.495627,1.24385 5.971678,2.79973 0.81171,0.36332 1.86033,0.83769 2.33028,1.05415 2.0504,0.94443 1.86092,0.90467 2.37688,0.49881 z m 31.87971,-6.90046 c 1.55825,-0.65108 1.61834,-3.71702 0.0884,-4.5082 -1.11999,-0.57917 -59.268397,-0.24391 -59.857408,0.34512 -1.055934,1.05595 -0.722917,3.60621 0.542749,4.15643 0.76366,0.33199 58.432169,0.33845 59.226299,0.007 z m -50.257811,-7.06518 c 0,-0.29829 -1.062458,-0.81374 -1.354814,-0.65727 -0.996191,0.53314 -0.915046,0.79995 0.243276,0.79995 0.611346,0 1.111538,-0.0642 1.111538,-0.14268 z m 5.56318,-0.0675 c 1.916357,-1.06341 1.382933,-1.89816 -3.388257,-5.3022 -4.645168,-3.31414 -5.152071,-3.49235 -6.187977,-2.1754 -0.832258,1.05804 -0.517478,1.56239 2.185785,3.50211 3.865708,2.77383 4.686516,3.35815 5.305525,3.77689 0.664941,0.44983 1.490476,0.52847 2.084924,0.1986 z"
       id="path870" /></g></svg>
