<?xml version="1.0" encoding="UTF-8" standalone="no"?>
<!-- Created with Inkscape (http://www.inkscape.org/) -->

<svg
   width="72mm"
   height="72mm"
   viewBox="0 0 72 72"
   version="1.1"
   id="svg33268"
   xml:space="preserve"
   inkscape:export-filename="massagem.svg"
   inkscape:export-xdpi="96"
   inkscape:export-ydpi="96"
   sodipodi:docname="massagem.svg"
   inkscape:version="1.2 (dc2aedaf03, 2022-05-15)"
   xmlns:inkscape="http://www.inkscape.org/namespaces/inkscape"
   xmlns:sodipodi="http://sodipodi.sourceforge.net/DTD/sodipodi-0.dtd"
   xmlns="http://www.w3.org/2000/svg"
   xmlns:svg="http://www.w3.org/2000/svg"><sodipodi:namedview
     id="namedview33270"
     pagecolor="#ffffff"
     bordercolor="#666666"
     borderopacity="1.0"
     inkscape:showpageshadow="2"
     inkscape:pageopacity="0.0"
     inkscape:pagecheckerboard="0"
     inkscape:deskcolor="#d1d1d1"
     inkscape:document-units="mm"
     showgrid="false"
     inkscape:zoom="2.1447137"
     inkscape:cx="62.246071"
     inkscape:cy="156.43114"
     inkscape:window-width="1920"
     inkscape:window-height="991"
     inkscape:window-x="-9"
     inkscape:window-y="-9"
     inkscape:window-maximized="1"
     inkscape:current-layer="layer1" /><defs
     id="defs33265" /><g
     inkscape:label="Camada 1"
     inkscape:groupmode="layer"
     id="layer1"
     transform="translate(-61.312929,-54.108992)"><path
       style="fill:#000000;stroke-width:0.264583"
       d="m 118.67986,123.73537 c -3.8444,-0.13645 -4.33057,-0.20839 -5.29167,-0.78309 -1.05833,-0.63283 -1.05833,-0.63283 -25.015436,-0.46211 -24.573384,0.17513 -24.593934,0.17447 -24.593934,-0.79115 0,-0.81479 0.826614,-1.15661 2.797024,-1.15661 1.965476,0 1.965476,0 1.965476,-1.98438 0,-1.98437 0,-1.98437 -2.231128,-1.98437 -2.016183,0 -2.247698,-0.0522 -2.40311,-0.54186 -0.316223,-0.99633 0.294675,-1.31022 2.549968,-1.31022 2.08427,0 2.08427,0 2.08427,-7.95386 0,-7.953865 0,-7.953865 -2.182812,-7.919441 -1.200547,0.01894 -2.339184,0.0263 -2.530305,0.01635 -0.950399,-0.0494 -0.212575,-1.735286 0.796133,-1.819116 0.946646,-0.07867 0.99101,-0.12926 1.392144,-1.5875 3.392192,-12.331604 7.879997,-20.576743 12.41507,-22.809351 1.58023,-0.777945 4.949335,-1.499352 5.477575,-1.172883 0.377515,0.233318 0.294512,-0.06104 -0.408301,-1.447976 -4.723495,-9.321369 7.056236,-18.248656 14.737188,-11.168601 5.844298,5.387084 2.271728,15.546319 -5.66746,16.116425 -1.767638,0.126932 -1.767638,0.126932 -1.124373,1.145933 0.998847,1.582272 1.346946,2.629054 2.853161,8.579802 1.403831,5.546254 1.403831,5.546254 5.638876,5.680808 5.929534,0.188391 7.401564,1.234598 7.189174,5.109492 -0.1136,2.072474 0.53808,2.474108 1.03001,0.63481 1.38401,-5.174647 8.15067,-8.079822 13.08696,-5.61871 8.87658,4.425653 6.28686,17.259488 -3.6517,18.096628 -1.9478,0.16406 -1.9478,0.16406 -0.3967,2.76413 0.85311,1.43003 1.65505,2.69796 1.78209,2.81761 0.12703,0.11965 2.21449,0.33997 4.63879,0.4896 4.84992,0.29935 5.56575,0.51349 6.70365,2.00535 1.32758,1.74055 1.20451,4.05361 -0.30455,5.72396 -1.49242,1.65193 -1.67416,1.67326 -11.33608,1.33033 z m 9.52626,-2.50872 c 1.20314,-1.20314 1.13478,-2.95216 -0.15296,-3.91359 -0.52625,-0.3929 -1.51403,-0.53772 -5.27498,-0.77335 -2.54512,-0.15946 -4.76581,-0.40151 -4.93488,-0.53789 -0.16906,-0.13637 -2.47933,-3.88723 -5.13393,-8.33523 -4.19482,-7.02877 -4.94264,-8.135786 -5.71355,-8.457895 -0.70223,-0.293407 -2.38868,-0.355952 -8.095236,-0.300223 l -7.208223,0.07039 -0.07008,7.871358 -0.07008,7.87136 h 7.705161 c 6.056058,0 7.677748,-0.0708 7.577068,-0.33073 -0.0704,-0.1819 -0.79304,-1.38879 -1.60577,-2.68198 -1.18611,-1.88732 -1.42562,-2.44853 -1.21382,-2.84427 0.69801,-1.30425 1.30397,-0.67349 5.14003,5.35039 4.40524,6.91768 4.68775,7.19041 7.67291,7.40713 6.08706,0.44193 10.70133,0.28156 11.37835,-0.39547 z m -38.561312,-11.46601 -0.06911,-10.781773 -9.462562,-0.06949 -9.462563,-0.06949 0.01961,10.851263 0.01961,10.85126 h 9.512067 9.512067 l -0.06911,-10.78177 z m 19.443032,10.55462 c 1.52047,-0.16973 1.52047,-0.16973 0.3934,-1.88952 -1.12708,-1.71979 -1.12708,-1.71979 -9.524122,-1.78965 -8.397049,-0.0699 -8.397049,-0.0699 -8.397049,1.91823 0,1.98809 0,1.98809 8.003645,1.95937 4.402006,-0.0158 8.687856,-0.10509 9.524126,-0.19843 z m 11.49215,-14.47825 c 5.62524,-2.71482 5.54676,-10.739432 -0.13229,-13.528264 -4.33653,-2.129555 -9.29869,0.265678 -10.60565,5.119338 -0.29189,1.084008 -0.27852,1.118351 1.81099,4.651276 1.15778,1.95757 2.26928,3.6955 2.46999,3.86208 1.18276,0.9816 4.3115,0.93101 6.45696,-0.10443 z M 81.748845,95.780203 c 0.45362,-1.80149 1.277208,-3.404261 2.398642,-4.667959 0.998195,-1.124826 0.998195,-1.124826 -0.04189,-4.141186 -1.133289,-3.286662 -1.211053,-4.349043 -0.327584,-4.47527 0.831942,-0.118866 0.919837,0.07623 3.402941,7.553392 l 2.306481,6.945312 7.320171,-0.004 c 7.591024,-0.0042 7.704944,-0.01767 8.206604,-0.970743 1.3482,-2.561375 -0.20304,-3.522175 -5.694727,-3.527173 -2.448666,-0.0021 -4.612047,-0.10541 -4.807511,-0.229293 -0.195461,-0.123881 -1.102667,-3.128386 -2.016011,-6.676676 -2.283349,-8.870698 -3.111677,-10.372794 -6.398119,-11.60241 -6.858788,-2.566202 -12.133626,2.959253 -16.852404,17.653092 -1.942319,6.048205 -2.629611,5.357251 5.328866,5.357251 6.868779,0 6.868779,0 7.174541,-1.214289 z m 5.577891,1.016754 c 0,-0.493151 -1.388384,-4.300381 -1.568221,-4.300381 -0.605657,0 -2.119107,2.77278 -2.130135,3.902604 -0.0055,0.561218 0.100261,0.595312 1.846273,0.595312 1.018645,0 1.852083,-0.08889 1.852083,-0.197535 z m 7.846837,-24.495063 c 4.544264,-2.302752 5.441327,-8.330595 1.766726,-11.871569 -4.5125,-4.348407 -11.959177,-1.537132 -12.460153,4.703966 -0.464808,5.790528 5.509079,9.794712 10.693427,7.167603 z"
       id="path33401" /></g></svg>
