<?xml version="1.0" encoding="UTF-8" standalone="no"?>
<!-- Created with Inkscape (http://www.inkscape.org/) -->

<svg
   width="72mm"
   height="72mm"
   viewBox="0 0 72 71.999999"
   version="1.1"
   id="svg5"
   xml:space="preserve"
   sodipodi:docname="terapia.svg"
   inkscape:version="1.2 (dc2aedaf03, 2022-05-15)"
   xmlns:inkscape="http://www.inkscape.org/namespaces/inkscape"
   xmlns:sodipodi="http://sodipodi.sourceforge.net/DTD/sodipodi-0.dtd"
   xmlns="http://www.w3.org/2000/svg"
   xmlns:svg="http://www.w3.org/2000/svg"><sodipodi:namedview
     id="namedview7"
     pagecolor="#ffffff"
     bordercolor="#666666"
     borderopacity="1.0"
     inkscape:showpageshadow="2"
     inkscape:pageopacity="0.0"
     inkscape:pagecheckerboard="0"
     inkscape:deskcolor="#d1d1d1"
     inkscape:document-units="mm"
     showgrid="false"
     inkscape:zoom="1.9536633"
     inkscape:cx="51.441823"
     inkscape:cy="98.532846"
     inkscape:window-width="1920"
     inkscape:window-height="991"
     inkscape:window-x="-9"
     inkscape:window-y="-9"
     inkscape:window-maximized="1"
     inkscape:current-layer="layer1" /><defs
     id="defs2" /><g
     inkscape:label="Camada 1"
     inkscape:groupmode="layer"
     id="layer1"
     transform="translate(-53.405633,-74.664762)"><path
       style="fill:#000000;stroke-width:0.360656"
       d="m 57.017391,130.31267 c -0.436235,-0.43624 -0.270546,-6.44148 0.190444,-6.90248 0.691318,-0.69131 64.241525,-0.62019 64.816445,0.0725 0.26845,0.32346 0.38168,1.65384 0.31465,3.69672 l -0.10473,3.19141 -32.487232,0.0921 c -17.867976,0.0507 -32.596287,-0.017 -32.729577,-0.15027 z m 62.980759,-3.09755 c -0.0199,-0.54549 -0.0523,-1.15409 -0.0721,-1.35246 -0.0237,-0.23729 -10.39892,-0.36066 -30.331206,-0.36066 H 59.299643 v 1.44468 1.44467 l 30.367296,-0.0922 30.367291,-0.0922 z m -61.144794,-7.68753 c -1.900703,-1.03131 -2.52354,-3.25703 -1.509455,-5.39406 0.990394,-2.0871 2.061436,-2.33647 10.034855,-2.33647 7.390454,0 7.531537,-0.0354 6.315303,-1.58153 -1.413082,-1.79644 -2.352955,-2.02493 -8.33551,-2.02639 -8.168989,-0.002 -11.268881,-3.07856 -7.111953,-7.05844 l 1.10191,-1.05498 h 7.639519 c 8.872508,0 8.976031,0.0302 12.993376,3.78821 l 2.311847,2.16263 h 5.093397 c 5.479433,0 5.502501,-0.01 4.274482,-1.84313 -6.881942,-10.273265 -7.23404,-14.286532 -1.15332,-13.145781 1.459025,0.273714 1.2316,-0.01523 7.042939,8.947909 l 3.916744,6.041002 h 1.79429 c 2.22713,0 3.21409,0.36542 4.83813,1.79134 l 1.27374,1.11836 0.93372,-0.93371 c 3.49698,-3.49698 9.60877,-2.20816 11.54896,2.43539 2.88285,6.89962 -6.26464,12.96254 -11.56317,7.66401 l -0.94792,-0.94793 -0.94898,0.90895 c -2.16064,2.06952 -1.65473,2.03045 -26.09318,2.01475 -19.165087,-0.0123 -22.607379,-0.0931 -23.449724,-0.55013 z m 20.582942,-1.91639 c -0.06612,-0.17436 -0.728404,-0.98584 -1.471742,-1.80328 l -1.351523,-1.48626 h -8.223907 c -5.915497,0 -8.345389,0.12147 -8.656695,0.43278 -0.648705,0.6487 -0.526645,2.36196 0.198361,2.78423 0.784608,0.45699 19.677942,0.52725 19.505506,0.0725 z m 25.889812,-0.26843 c 3.67986,-1.74621 3.74452,-6.66827 0.11193,-8.52057 -1.10181,-0.56182 -2.50881,-0.63065 -12.902897,-0.63115 l -11.666243,-5.6e-4 -2.399365,-2.29947 c -3.578892,-3.4299 -3.772094,-3.49435 -10.993362,-3.66699 -6.843982,-0.16362 -7.915044,0.0599 -8.105946,1.69176 -0.219736,1.87833 0.513995,2.11077 6.662981,2.11077 6.33892,0 7.375592,0.28197 9.142199,2.48667 0.573019,0.71512 2.063677,2.59158 3.312575,4.16993 1.248897,1.57834 2.973095,3.40417 3.831551,4.05739 l 1.560827,1.18767 h 10.106005 c 8.577115,0 10.292645,-0.0886 11.339745,-0.58545 z m 11.93714,-0.0168 c 4.00815,-1.90199 3.24854,-8.15183 -1.08968,-8.96569 -5.51458,-1.03453 -7.74975,6.76786 -2.59513,9.05885 1.4451,0.64228 2.17381,0.62385 3.68481,-0.0932 z m -19.155941,-11.8738 c -0.483639,-1.26034 -7.629034,-12.047587 -8.099935,-12.228288 -0.640725,-0.245869 -1.494987,0.449647 -1.493132,1.215661 0.0044,1.819995 7.166828,11.587017 8.49707,11.587017 1.055983,0 1.272802,-0.11363 1.095997,-0.57439 z"
       id="path306" /></g></svg>
