<?xml version="1.0" encoding="UTF-8" standalone="no"?>
<!-- Created with Inkscape (http://www.inkscape.org/) -->

<svg
   width="1080"
   height="1080"
   viewBox="0 0 285.74999 285.75"
   version="1.1"
   id="svg9879"
   inkscape:version="1.2 (dc2aedaf03, 2022-05-15)"
   sodipodi:docname="logo-comdegrade.svg"
   inkscape:export-filename="logo-256x256.png"
   inkscape:export-xdpi="22.755556"
   inkscape:export-ydpi="22.755556"
   xmlns:inkscape="http://www.inkscape.org/namespaces/inkscape"
   xmlns:sodipodi="http://sodipodi.sourceforge.net/DTD/sodipodi-0.dtd"
   xmlns:xlink="http://www.w3.org/1999/xlink"
   xmlns="http://www.w3.org/2000/svg"
   xmlns:svg="http://www.w3.org/2000/svg">
  <sodipodi:namedview
     id="namedview9881"
     pagecolor="#ffffff"
     bordercolor="#666666"
     borderopacity="1.0"
     inkscape:showpageshadow="2"
     inkscape:pageopacity="0.0"
     inkscape:pagecheckerboard="0"
     inkscape:deskcolor="#d1d1d1"
     inkscape:document-units="mm"
     showgrid="false"
     inkscape:zoom="0.50646226"
     inkscape:cx="251.7463"
     inkscape:cy="540.02049"
     inkscape:window-width="1920"
     inkscape:window-height="991"
     inkscape:window-x="-9"
     inkscape:window-y="-9"
     inkscape:window-maximized="1"
     inkscape:current-layer="layer1" />
  <defs
     id="defs9876">
    <filter
       style="color-interpolation-filters:sRGB"
       inkscape:label="Drop Shadow"
       id="filter8965"
       x="-0.21626917"
       y="-0.20034781"
       width="1.5226505"
       height="1.4841739">
      <feFlood
         flood-opacity="0.960784"
         flood-color="rgb(255,255,255)"
         result="flood"
         id="feFlood8955" />
      <feComposite
         in="flood"
         in2="SourceGraphic"
         operator="in"
         result="composite1"
         id="feComposite8957" />
      <feGaussianBlur
         in="composite1"
         stdDeviation="3"
         result="blur"
         id="feGaussianBlur8959" />
      <feOffset
         dx="3"
         dy="3"
         result="offset"
         id="feOffset8961" />
      <feComposite
         in="SourceGraphic"
         in2="offset"
         operator="over"
         result="fbSourceGraphic"
         id="feComposite8963" />
      <feColorMatrix
         result="fbSourceGraphicAlpha"
         in="fbSourceGraphic"
         values="0 0 0 -1 0 0 0 0 -1 0 0 0 0 -1 0 0 0 0 1 0"
         id="feColorMatrix8967" />
      <feFlood
         id="feFlood8969"
         flood-opacity="0.960784"
         flood-color="rgb(255,255,255)"
         result="flood"
         in="fbSourceGraphic" />
      <feComposite
         in2="fbSourceGraphic"
         id="feComposite8971"
         in="flood"
         operator="in"
         result="composite1" />
      <feGaussianBlur
         id="feGaussianBlur8973"
         in="composite1"
         stdDeviation="3"
         result="blur" />
      <feOffset
         id="feOffset8975"
         dx="3"
         dy="3"
         result="offset" />
      <feComposite
         in2="offset"
         id="feComposite8977"
         in="fbSourceGraphic"
         operator="over"
         result="composite2" />
    </filter>
    <clipPath
       clipPathUnits="userSpaceOnUse"
       id="clipPath534-9-5-0-1">
      <path
         d="m 834.34198,248.03081 h 78.125 v 84.37501 h -78.125 z"
         clip-rule="evenodd"
         id="path532-4-3-4-7" />
    </clipPath>
    <radialGradient
       inkscape:collect="always"
       xlink:href="#linearGradient1768"
       id="radialGradient1770-09-8-3"
       cx="64.788025"
       cy="125.7062"
       fx="64.788025"
       fy="125.7062"
       r="44.655972"
       gradientTransform="matrix(1.6352263,-0.86999644,0.50319079,0.95379749,-107.8402,55.423622)"
       gradientUnits="userSpaceOnUse" />
    <linearGradient
       inkscape:collect="always"
       id="linearGradient1768">
      <stop
         style="stop-color:#000000;stop-opacity:1;"
         offset="0"
         id="stop1764" />
      <stop
         style="stop-color:#000000;stop-opacity:0;"
         offset="1"
         id="stop1766" />
    </linearGradient>
    <radialGradient
       inkscape:collect="always"
       xlink:href="#linearGradient1768"
       id="radialGradient1770-0-0-1-8"
       cx="80.857056"
       cy="74.262032"
       fx="80.857056"
       fy="74.262032"
       r="44.655972"
       gradientTransform="matrix(-0.35407302,1.1207156,-0.75525757,-0.23860867,972.31007,185.54527)"
       gradientUnits="userSpaceOnUse" />
  </defs>
  <g
     inkscape:label="Camada 1"
     inkscape:groupmode="layer"
     id="layer1">
    <g
       id="g528-9-4-9-6"
       transform="matrix(-3.1316674,0,0,3.3178349,2828.7636,-759.29811)">
      <g
         id="g530-9-7-1-3"
         clip-path="url(#clipPath534-9-5-0-1)"
         transform="matrix(0.85227411,0,0,0.85227411,110.27446,24.122727)">
        <g
           id="g542-8-4-4"
           transform="matrix(0.65577418,0,0,0.65301222,797.35175,215.47812)">
          <path
             d="m 133.26916,58.116787 c 3.79255,-0.02813 7.05637,0.629089 10.00455,1.731159 5.89639,2.204144 11.26837,5.447838 12.21616,11.906418 0.94778,6.45858 4.85972,11.883286 -0.60457,18.369446 -5.4643,6.486145 -10.3307,12.37139 -23.44635,15.47977 -13.11564,3.10837 -53.08581,13.70844 -71.495127,14.9635 4.083359,-12.57475 19.753809,-30.246096 28.34205,-40.02582 8.588234,-9.779717 21.680087,-16.763741 31.806317,-20.043221 5.06312,-1.63974 9.38443,-2.353122 13.17699,-2.381248 z"
             style="fill:url(#radialGradient1770-09-8-3);fill-opacity:1;fill-rule:nonzero;stroke:none"
             id="path571-3-1-7-8"
             sodipodi:nodetypes="csssscsscc" />
          <path
             d="m 109.34331,54.856266 c -13.904139,4.923519 -30.812251,15.53088 -38.787562,29.73695 -12.487926,22.244204 -20.137547,52.681104 -8.126823,76.096864 6.242302,12.16981 19.339271,18.14216 33.015327,18.33189 18.281108,0.25362 39.254688,-9.87501 53.425158,-23.13402 13.63717,-12.75999 23.56086,-36.60137 25.62743,-49.8231 2.17726,-13.929909 0.56416,-19.039803 -1.33893,-19.024162 -1.9031,0.01564 1.3881,29.704442 -30.79916,62.105762 -16.35757,16.46637 -40.24234,23.3933 -59.335175,15.97647 -8.792023,-3.41536 -14.299439,-17.01594 -15.191773,-23.87236 -0.892326,-6.85641 -0.328941,-20.52902 6.649125,-21.42549 25.138214,-3.22947 51.944583,-6.15722 74.804263,-18.6547 6.95272,-3.801084 12.50433,-11.71501 13.48295,-19.578283 1.17162,-9.414116 -2.11941,-21.259773 -9.90442,-26.681214 -11.90457,-8.290283 -29.84561,-4.896911 -43.5204,-0.05461 l -1e-5,4e-6 z m 23.93072,3.292641 c 3.79254,-0.02813 7.05637,0.629089 10.00455,1.731159 5.89639,2.204143 9.66315,7.249657 11.47734,12.645225 1.84093,5.475037 0.84348,11.994278 -1.52808,17.261231 -7.35754,16.340328 -56.818302,22.982798 -75.966426,25.161368 -13.136376,1.49458 2.441063,-24.594794 11.029304,-34.37451 8.588234,-9.779717 21.680082,-16.763741 31.806332,-20.043221 5.06311,-1.63974 9.38443,-2.353123 13.17698,-2.381248 z"
             style="fill:#000000;fill-opacity:1;fill-rule:nonzero;stroke:none"
             id="path573-7-2-0-0" />
          <path
             d="m 146.21018,80.157699 c 0,1.858827 -0.35418,3.646897 -1.06253,5.364227 -0.70836,1.717331 -1.71696,3.233185 -3.0258,4.547574 -1.30887,1.314378 -2.81836,2.327244 -4.52843,3.038588 -1.71009,0.711344 -3.49064,1.067017 -5.34162,1.067026 -1.85102,-9e-6 -3.63158,-0.355682 -5.34166,-1.067026 -1.71009,-0.711344 -3.21956,-1.72421 -4.52843,-3.038588 -1.30885,-1.314389 -2.31746,-2.830243 -3.0258,-4.547574 -0.70834,-1.71733 -1.06251,-3.5054 -1.06249,-5.364227 -2e-5,-1.858838 0.35415,-3.646916 1.06249,-5.364247 0.70834,-1.717332 1.71695,-3.233186 3.02581,-4.547573 1.30886,-1.314388 2.81833,-2.327254 4.52842,-3.038589 1.71008,-0.711335 3.49064,-1.067008 5.34166,-1.067008 1.85098,0 3.63153,0.355673 5.34162,1.067008 1.71007,0.711335 3.21956,1.724201 4.52843,3.038589 1.30884,1.314387 2.31744,2.830241 3.0258,4.547573 0.70835,1.717331 1.06253,3.505409 1.06253,5.364247 z"
             style="fill:#ffffff;fill-opacity:1;fill-rule:nonzero;stroke:none;stroke-width:1.3342"
             id="path575-5-5-9-1" />
          <path
             d="m 109.47176,145.52141 c 0,1.85881 -0.35418,3.64689 -1.06253,5.36422 -0.70835,1.71733 -1.71695,3.23318 -3.02581,4.54758 -1.30884,1.31438 -2.81832,2.32725 -4.52842,3.03858 -1.710094,0.71134 -3.490633,1.06702 -5.341622,1.06704 -1.851005,-2e-5 -3.631553,-0.3557 -5.341653,-1.06704 -1.710091,-0.71133 -3.219564,-1.7242 -4.528412,-3.03858 -1.308854,-1.3144 -2.317452,-2.83025 -3.025795,-4.54758 -0.708342,-1.71733 -1.062518,-3.50541 -1.062518,-5.36422 0,-1.85882 0.354167,-3.64691 1.062511,-5.36425 0.708342,-1.71732 1.716948,-3.23319 3.025802,-4.54757 1.308848,-1.31439 2.818321,-2.32725 4.528412,-3.03859 1.7101,-0.71134 3.490648,-1.067 5.341653,-1.067 1.850989,0 3.631528,0.35566 5.341632,1.067 1.71009,0.71134 3.21957,1.7242 4.52841,3.03859 1.30886,1.31438 2.31746,2.83025 3.02581,4.54757 0.70835,1.71734 1.06253,3.50543 1.06253,5.36425 z"
             style="fill:#000000;fill-opacity:1;fill-rule:nonzero;stroke:none;stroke-width:1.02793"
             id="path577-9-8-8-1" />
        </g>
      </g>
      <path
         d="m 844.51333,301.25305 c -2.25087,0.77957 -5.47449,-0.16559 -7.09596,-0.84534 -4.92393,-2.06419 -11.56459,-2.81467 -12.88538,-5.85477 -2.12705,-4.89589 2.30711,-15.47041 4.89362,-19.42868 0.96029,-1.4696 16.63847,-2.74909 21.24225,-3.66898 8.11268,-1.62102 6.93225,-1.70483 15.6355,-4.65861 1.67858,-0.56969 5.63289,-2.42122 8.82773,-4.18486 2.11472,-1.16739 10.52302,-5.55277 11.48065,-6.29272 -0.88639,7.23105 -1.45609,17.19368 -14.35173,31.52318 -4.85451,5.39427 -7.52427,7.28775 -12.08566,9.72174 -3.53965,1.88878 -7.52946,2.93838 -11.48817,3.5905 -1.37282,0.22615 -2.78323,0.16812 -4.17281,0.0985 0,0 -2e-5,3e-5 -4e-5,4e-5 z"
         style="fill:url(#radialGradient1770-0-0-1-8);fill-opacity:1;fill-rule:nonzero;stroke:none;stroke-width:0.557721"
         id="path571-3-7-0-9-3"
         sodipodi:nodetypes="asssssscsaaaa" />
    </g>
  </g>
</svg>
