<svg width="1920" height="400" version="1.1" viewBox="0 0 508 105.83" xml:space="preserve" xmlns="http://www.w3.org/2000/svg" xmlns:xlink="http://www.w3.org/1999/xlink"><defs><clipPath id="clipPath2557-4-9-5"><path d="m56.407 49.85h119.13v129.21h-119.13z" clip-rule="evenodd" stroke-width="1.5281"/></clipPath><clipPath id="clipPath534-9-5-0-1"><path d="m834.34 248.03h78.125v84.375h-78.125z" clip-rule="evenodd"/></clipPath><radialGradient id="radialGradient1770-09-8-3" cx="64.788" cy="125.71" r="44.656" gradientTransform="matrix(1.6352 -.87 .50319 .9538 -107.84 55.424)" gradientUnits="userSpaceOnUse"><stop stop-color="#e5e5e5" offset="0"/><stop stop-color="#e5e5e5" stop-opacity="0" offset="1"/></radialGradient><radialGradient id="radialGradient1770-0-0-1-8" cx="80.857" cy="74.262" r="44.656" gradientTransform="matrix(-.35407 1.1207 -.75526 -.23861 972.31 185.55)" gradientUnits="userSpaceOnUse"><stop stop-color="#f2f2f2" offset="0"/><stop stop-color="#f2f2f2" stop-opacity="0" offset="1"/></radialGradient></defs><g transform="matrix(-1.1915 0 0 1.2624 1079.4 -289.98)"><g transform="matrix(.85227 0 0 .85227 110.27 24.123)" clip-path="url(#clipPath534-9-5-0-1)"><g transform="matrix(.65577 0 0 .65301 797.35 215.48)"><path d="m133.27 58.117c3.7926-0.02813 7.0564 0.62909 10.005 1.7312 5.8964 2.2041 11.268 5.4478 12.216 11.906 0.94778 6.4586 4.8597 11.883-0.60457 18.369-5.4643 6.4861-10.331 12.371-23.446 15.48-13.116 3.1084-53.086 13.708-71.495 14.964 4.0834-12.575 19.754-30.246 28.342-40.026 8.5882-9.7797 21.68-16.764 31.806-20.043 5.0631-1.6397 9.3844-2.3531 13.177-2.3812z" fill="url(#radialGradient1770-09-8-3)"/><path d="m109.34 54.856c-13.904 4.9235-30.812 15.531-38.788 29.737-12.488 22.244-20.138 52.681-8.1268 76.097 6.2423 12.17 19.339 18.142 33.015 18.332 18.281 0.25362 39.255-9.875 53.425-23.134 13.637-12.76 23.561-36.601 25.627-49.823 2.1773-13.93 0.56416-19.04-1.3389-19.024-1.9031 0.01564 1.3881 29.704-30.799 62.106-16.358 16.466-40.242 23.393-59.335 15.976-8.792-3.4154-14.299-17.016-15.192-23.872-0.89233-6.8564-0.32894-20.529 6.6491-21.425 25.138-3.2295 51.945-6.1572 74.804-18.655 6.9527-3.8011 12.504-11.715 13.483-19.578 1.1716-9.4141-2.1194-21.26-9.9044-26.681-11.905-8.2903-29.846-4.8969-43.52-0.05461l-1e-5 4e-6zm23.931 3.2926c3.7925-0.02813 7.0564 0.62909 10.005 1.7312 5.8964 2.2041 9.6632 7.2497 11.477 12.645 1.8409 5.475 0.84348 11.994-1.5281 17.261-7.3575 16.34-56.818 22.983-75.966 25.161-13.136 1.4946 2.4411-24.595 11.029-34.375 8.5882-9.7797 21.68-16.764 31.806-20.043 5.0631-1.6397 9.3844-2.3531 13.177-2.3812z"/><path d="m146.21 80.158c0 1.8588-0.35418 3.6469-1.0625 5.3642-0.70836 1.7173-1.717 3.2332-3.0258 4.5476-1.3089 1.3144-2.8184 2.3272-4.5284 3.0386-1.7101 0.71134-3.4906 1.067-5.3416 1.067-1.851-9e-6 -3.6316-0.35568-5.3417-1.067-1.7101-0.71134-3.2196-1.7242-4.5284-3.0386-1.3088-1.3144-2.3175-2.8302-3.0258-4.5476-0.70834-1.7173-1.0625-3.5054-1.0625-5.3642-2e-5 -1.8588 0.35415-3.6469 1.0625-5.3642 0.70834-1.7173 1.717-3.2332 3.0258-4.5476 1.3089-1.3144 2.8183-2.3273 4.5284-3.0386 1.7101-0.71134 3.4906-1.067 5.3417-1.067 1.851 0 3.6315 0.35567 5.3416 1.067 1.7101 0.71134 3.2196 1.7242 4.5284 3.0386 1.3088 1.3144 2.3174 2.8302 3.0258 4.5476 0.70835 1.7173 1.0625 3.5054 1.0625 5.3642z" fill="#fff"/><path d="m109.47 145.52c0 1.8588-0.35418 3.6469-1.0625 5.3642s-1.717 3.2332-3.0258 4.5476c-1.3088 1.3144-2.8183 2.3272-4.5284 3.0386-1.7101 0.71134-3.4906 1.067-5.3416 1.067-1.851-2e-5 -3.6316-0.3557-5.3417-1.067-1.7101-0.71133-3.2196-1.7242-4.5284-3.0386-1.3089-1.3144-2.3175-2.8302-3.0258-4.5476-0.70834-1.7173-1.0625-3.5054-1.0625-5.3642 0-1.8588 0.35417-3.6469 1.0625-5.3642 0.70834-1.7173 1.7169-3.2332 3.0258-4.5476 1.3088-1.3144 2.8183-2.3272 4.5284-3.0386 1.7101-0.71134 3.4906-1.067 5.3417-1.067 1.851 0 3.6315 0.35566 5.3416 1.067 1.7101 0.71134 3.2196 1.7242 4.5284 3.0386 1.3089 1.3144 2.3175 2.8302 3.0258 4.5476 0.70835 1.7173 1.0625 3.5054 1.0625 5.3642z"/></g></g><path d="m844.51 301.25c-2.2509 0.77957-5.4745-0.16559-7.096-0.84534-4.9239-2.0642-11.565-2.8147-12.885-5.8548-2.127-4.8959 2.3071-15.47 4.8936-19.429 0.96029-1.4696 16.638-2.7491 21.242-3.669 8.1127-1.621 6.9322-1.7048 15.636-4.6586 1.6786-0.56969 5.6329-2.4212 8.8277-4.1849 2.1147-1.1674 10.523-5.5528 11.481-6.2927-0.88639 7.231-1.4561 17.194-14.352 31.523-4.8545 5.3943-7.5243 7.2878-12.086 9.7217-3.5396 1.8888-7.5295 2.9384-11.488 3.5905-1.3728 0.22615-2.7832 0.16812-4.1728 0.0985 0 0-2e-5 3e-5 -4e-5 4e-5z" fill="url(#radialGradient1770-0-0-1-8)"/></g><g transform="translate(65.445 -123.88)"><text transform="matrix(1.2349 0 0 1.2349 -84.544 .013339)" x="96.337402" y="166.37257" font-family="Cookie" font-size="69.314px" letter-spacing="-5.0902px" stroke-width=".36101" word-spacing="-.039711px" style="line-height:1.15" xml:space="preserve"><tspan x="96.337402" y="166.37257" font-family="'HP Simplified'" stroke-width=".36101">Trata</tspan></text><g transform="translate(143.39 -44.245)"><path transform="matrix(-.40231 0 0 .41415 272.31 179.39)" d="m109.34 54.856c-13.904 4.9235-30.812 15.531-38.788 29.737-12.488 22.244-20.138 52.681-8.1268 76.097 6.2423 12.17 19.339 18.142 33.015 18.332 18.281 0.25362 39.255-9.875 53.425-23.134 13.637-12.76 23.561-36.601 25.627-49.823 2.1773-13.93 0.56416-19.04-1.3389-19.024-1.9031 0.01564 1.3881 29.704-30.799 62.106-16.358 16.466-40.242 23.393-59.335 15.976-8.792-3.4154-14.299-17.016-15.192-23.872-0.89233-6.8564-0.32894-20.529 6.6491-21.425 25.138-3.2295 51.945-6.1572 74.804-18.655 6.9527-3.8011 12.504-11.715 13.483-19.578 1.1716-9.4141-2.1194-21.26-9.9044-26.681-11.905-8.2903-29.846-4.8969-43.52-0.05461l-1e-5 4e-6zm23.931 3.2926c3.7925-0.02813 7.0564 0.62909 10.005 1.7312 5.8964 2.2041 9.6632 7.2497 11.477 12.645 1.8409 5.475 0.84348 11.994-1.5281 17.261-7.3575 16.34-56.818 22.983-75.966 25.161-13.136 1.4946 2.4411-24.595 11.029-34.375 8.5882-9.7797 21.68-16.764 31.806-20.043 5.0631-1.6397 9.3844-2.3531 13.177-2.3812z" clip-path="url(#clipPath2557-4-9-5)"/><text transform="matrix(1.2349 0 0 1.2349 -84.544 .013339)" x="106.583" y="203.19209" font-family="Cookie" font-size="69.314px" letter-spacing="-5.0902px" stroke-width=".36101" word-spacing="-.039711px" style="line-height:1.15" xml:space="preserve"><tspan x="106.583" y="203.19209" font-family="'HP Simplified'" stroke-width=".36101">ment   s</tspan></text></g></g></svg>
