<?xml version="1.0" encoding="UTF-8" standalone="no"?>
<!-- Created with Inkscape (http://www.inkscape.org/) -->

<svg
   width="439.99997mm"
   height="106mm"
   viewBox="0 0 439.99997 106"
   version="1.1"
   id="svg10421"
   inkscape:version="1.2 (dc2aedaf03, 2022-05-15)"
   sodipodi:docname="tratamentes-tipografia.svg"
   inkscape:export-filename="tratamentes-tipografia-640x128.png"
   inkscape:export-xdpi="40.639999"
   inkscape:export-ydpi="40.639999"
   xmlns:inkscape="http://www.inkscape.org/namespaces/inkscape"
   xmlns:sodipodi="http://sodipodi.sourceforge.net/DTD/sodipodi-0.dtd"
   xmlns="http://www.w3.org/2000/svg"
   xmlns:svg="http://www.w3.org/2000/svg">
  <sodipodi:namedview
     id="namedview10423"
     pagecolor="#ffffff"
     bordercolor="#666666"
     borderopacity="1.0"
     inkscape:showpageshadow="2"
     inkscape:pageopacity="0.0"
     inkscape:pagecheckerboard="0"
     inkscape:deskcolor="#d1d1d1"
     inkscape:document-units="mm"
     showgrid="false"
     inkscape:zoom="0.25323113"
     inkscape:cx="787.81784"
     inkscape:cy="485.72228"
     inkscape:window-width="1765"
     inkscape:window-height="1020"
     inkscape:window-x="64"
     inkscape:window-y="0"
     inkscape:window-maximized="0"
     inkscape:current-layer="layer1" />
  <defs
     id="defs10418">
    <filter
       style="color-interpolation-filters:sRGB"
       inkscape:label="Drop Shadow"
       id="filter8965"
       x="-0.1208727"
       y="-0.31863722"
       width="1.292109"
       height="1.77004">
      <feFlood
         flood-opacity="0.960784"
         flood-color="rgb(255,255,255)"
         result="flood"
         id="feFlood8955" />
      <feComposite
         in="flood"
         in2="SourceGraphic"
         operator="in"
         result="composite1"
         id="feComposite8957" />
      <feGaussianBlur
         in="composite1"
         stdDeviation="3"
         result="blur"
         id="feGaussianBlur8959" />
      <feOffset
         dx="3"
         dy="3"
         result="offset"
         id="feOffset8961" />
      <feComposite
         in="SourceGraphic"
         in2="offset"
         operator="over"
         result="fbSourceGraphic"
         id="feComposite8963" />
      <feColorMatrix
         result="fbSourceGraphicAlpha"
         in="fbSourceGraphic"
         values="0 0 0 -1 0 0 0 0 -1 0 0 0 0 -1 0 0 0 0 1 0"
         id="feColorMatrix8967" />
      <feFlood
         id="feFlood8969"
         flood-opacity="0.960784"
         flood-color="rgb(255,255,255)"
         result="flood"
         in="fbSourceGraphic" />
      <feComposite
         in2="fbSourceGraphic"
         id="feComposite8971"
         in="flood"
         operator="in"
         result="composite1" />
      <feGaussianBlur
         id="feGaussianBlur8973"
         in="composite1"
         stdDeviation="3"
         result="blur" />
      <feOffset
         id="feOffset8975"
         dx="3"
         dy="3"
         result="offset" />
      <feComposite
         in2="offset"
         id="feComposite8977"
         in="fbSourceGraphic"
         operator="over"
         result="composite2" />
    </filter>
    <clipPath
       clipPathUnits="userSpaceOnUse"
       id="clipPath2557-4-9-5">
      <path
         d="M 56.406965,49.850048 H 175.54096 V 179.05897 H 56.406965 Z"
         clip-rule="evenodd"
         id="path2559-5-5-7"
         style="stroke-width:1.52813" />
    </clipPath>
  </defs>
  <g
     inkscape:label="Camada 1"
     inkscape:groupmode="layer"
     id="layer1">
    <g
       id="g9649"
       transform="translate(-16.653423,-126.89239)">
      <g
         aria-label="Trata"
         transform="matrix(1.2348772,0,0,1.2348772,-84.54362,0.01333865)"
         id="text2659-1"
         style="font-size:69.3136px;line-height:1.15;font-family:Cookie;-inkscape-font-specification:Cookie;letter-spacing:-5.09021px;word-spacing:-0.0397109px;stroke-width:0.361006;filter:url(#filter8965)">
        <path
           d="M 110.89326,124.43785 H 99.872396 q -1.663526,0 -1.663526,-1.59422 v -4.50538 h 31.05249 q 0.76245,0 1.17833,0.41588 0.4852,0.41588 0.4852,1.17833 v 4.50539 h -12.7537 v 41.93472 h -5.61441 q -1.66352,0 -1.66352,-1.59421 z"
           style="font-family:'HP Simplified';-inkscape-font-specification:'HP Simplified'"
           id="path10819" />
        <path
           d="m 145.24245,130.88401 q 1.38627,0 1.87147,0.4852 0.48519,0.41588 0.48519,1.17833 v 4.64401 q -0.48519,-0.0693 -0.97039,-0.0693 -0.48519,0 -0.90107,0 -2.84186,0 -5.19852,0.90107 -2.28735,0.90108 -4.29745,3.0498 v 25.29946 h -5.33714 q -1.66353,0 -1.66353,-1.59421 v -33.68641 h 4.22813 q 0.90108,0 1.31696,0.41588 0.41588,0.34657 0.62382,1.31696 l 0.27725,3.0498 q 1.59422,-1.94078 4.08951,-3.46568 2.49529,-1.5249 5.47577,-1.5249 z"
           style="font-family:'HP Simplified';-inkscape-font-specification:'HP Simplified'"
           id="path10821" />
        <path
           d="m 159.69868,149.52937 q -2.0794,0 -3.46568,0.48519 -1.38627,0.41589 -2.21803,1.24765 -0.76245,0.76245 -1.10902,1.87147 -0.27725,1.10901 -0.27725,2.42597 0,3.18843 1.5249,4.64401 1.52489,1.45559 4.64401,1.45559 2.77254,0 4.78264,-1.0397 2.01009,-1.10902 3.46567,-2.49529 v -8.59489 z m -2.70323,17.46703 q -5.40646,0 -8.04037,-2.98049 -2.63392,-2.98048 -2.63392,-8.24832 0,-3.25774 0.97039,-5.40646 1.0397,-2.14872 2.84186,-3.39636 1.87146,-1.31696 4.36675,-1.80216 2.49529,-0.55451 5.40646,-0.55451 h 7.1393 v -2.35666 q 0,-3.60431 -1.87146,-4.92126 -1.87147,-1.31696 -6.37685,-1.31696 -3.0498,0 -5.47578,0.34657 -2.42597,0.27725 -3.18842,0.27725 -0.90108,0 -1.31696,-0.41588 -0.34657,-0.4852 -0.34657,-1.17833 v -2.98049 q 2.42598,-0.76245 5.47577,-1.24764 3.0498,-0.4852 6.23823,-0.4852 3.95087,0 6.58479,0.90108 2.63392,0.83176 4.22813,2.42598 1.59421,1.59421 2.21804,3.88156 0.69313,2.28735 0.69313,5.05989 v 23.77456 h -4.22813 q -1.17833,0 -1.45558,-0.48519 -0.27726,-0.55451 -0.41589,-1.24765 l -0.27725,-2.0794 q -1.80215,1.73284 -4.36676,3.11911 -2.49529,1.31696 -6.16891,1.31696 z"
           style="font-family:'HP Simplified';-inkscape-font-specification:'HP Simplified'"
           id="path10823" />
        <path
           d="m 194.39441,166.16463 q -1.59422,0.41588 -3.0498,0.62383 -1.38627,0.20794 -2.91117,0.20794 -4.99058,0 -7.27793,-2.21804 -2.21804,-2.21803 -2.21804,-7.00067 v -21.14065 h -2.42597 q -1.66353,0 -1.66353,-1.59421 v -3.95088 h 4.22813 l 0.34657,-9.14939 h 4.85195 q 1.66353,0 1.66353,1.59421 v 7.55518 h 6.79273 q 0.76245,0 1.17833,0.41588 0.4852,0.41589 0.4852,1.17833 v 3.95088 h -8.45626 v 20.79408 q 0,1.87147 0.62382,2.91117 0.62382,1.0397 2.49529,1.0397 1.17833,0 1.94078,0 0.83176,-0.0693 1.5249,-0.0693 1.87147,0 1.87147,1.59421 z"
           style="font-family:'HP Simplified';-inkscape-font-specification:'HP Simplified'"
           id="path10825" />
        <path
           d="m 208.01893,149.52937 q -2.0794,0 -3.46567,0.48519 -1.38628,0.41589 -2.21804,1.24765 -0.76245,0.76245 -1.10902,1.87147 -0.27725,1.10901 -0.27725,2.42597 0,3.18843 1.5249,4.64401 1.5249,1.45559 4.64401,1.45559 2.77254,0 4.78264,-1.0397 2.01009,-1.10902 3.46568,-2.49529 v -8.59489 z m -2.70323,17.46703 q -5.40646,0 -8.04037,-2.98049 -2.63392,-2.98048 -2.63392,-8.24832 0,-3.25774 0.97039,-5.40646 1.0397,-2.14872 2.84186,-3.39636 1.87147,-1.31696 4.36676,-1.80216 2.49528,-0.55451 5.40646,-0.55451 h 7.1393 v -2.35666 q 0,-3.60431 -1.87147,-4.92126 -1.87147,-1.31696 -6.37685,-1.31696 -3.0498,0 -5.47578,0.34657 -2.42597,0.27725 -3.18842,0.27725 -0.90108,0 -1.31696,-0.41588 -0.34657,-0.4852 -0.34657,-1.17833 v -2.98049 q 2.42598,-0.76245 5.47578,-1.24764 3.04979,-0.4852 6.23822,-0.4852 3.95088,0 6.58479,0.90108 2.63392,0.83176 4.22813,2.42598 1.59421,1.59421 2.21804,3.88156 0.69313,2.28735 0.69313,5.05989 v 23.77456 h -4.22813 q -1.17833,0 -1.45558,-0.48519 -0.27726,-0.55451 -0.41588,-1.24765 l -0.27726,-2.0794 q -1.80215,1.73284 -4.36676,3.11911 -2.49528,1.31696 -6.16891,1.31696 z"
           style="font-family:'HP Simplified';-inkscape-font-specification:'HP Simplified'"
           id="path10827" />
      </g>
      <g
         id="g9641"
         transform="translate(143.3871,-44.245161)">
        <path
           d="m 109.34331,54.856266 c -13.904139,4.923519 -30.812251,15.53088 -38.787562,29.73695 -12.487926,22.244204 -20.137547,52.681104 -8.126823,76.096864 6.242302,12.16981 19.339271,18.14216 33.015327,18.33189 18.281108,0.25362 39.254688,-9.87501 53.425158,-23.13402 13.63717,-12.75999 23.56086,-36.60137 25.62743,-49.8231 2.17726,-13.929909 0.56416,-19.039803 -1.33893,-19.024162 -1.9031,0.01564 1.3881,29.704442 -30.79916,62.105762 -16.35757,16.46637 -40.24234,23.3933 -59.335175,15.97647 -8.792023,-3.41536 -14.299439,-17.01594 -15.191773,-23.87236 -0.892326,-6.85641 -0.328941,-20.52902 6.649125,-21.42549 25.138214,-3.22947 51.944583,-6.15722 74.804263,-18.6547 6.95272,-3.801084 12.50433,-11.71501 13.48295,-19.578283 1.17162,-9.414116 -2.11941,-21.259773 -9.90442,-26.681214 -11.90457,-8.290283 -29.84561,-4.896911 -43.5204,-0.05461 l -1e-5,4e-6 z m 23.93072,3.292641 c 3.79254,-0.02813 7.05637,0.629089 10.00455,1.731159 5.89639,2.204143 9.66315,7.249657 11.47734,12.645225 1.84093,5.475037 0.84348,11.994278 -1.52808,17.261231 -7.35754,16.340328 -56.818302,22.982798 -75.966426,25.161368 -13.136376,1.49458 2.441063,-24.594794 11.029304,-34.37451 8.588234,-9.779717 21.680082,-16.763741 31.806332,-20.043221 5.06311,-1.63974 9.38443,-2.353123 13.17698,-2.381248 z"
           style="fill:#000000;fill-opacity:1;fill-rule:nonzero;stroke:none;filter:url(#filter8965)"
           id="path573-7-9-7-6-7"
           transform="matrix(-0.40230607,0,0,0.41414626,272.30772,179.39298)"
           clip-path="url(#clipPath2557-4-9-5)" />
        <g
           aria-label="ment   s"
           transform="matrix(1.2348772,0,0,1.2348772,-84.54362,0.01333865)"
           id="text2659-1-2"
           style="font-size:69.3136px;line-height:1.15;font-family:Cookie;-inkscape-font-specification:Cookie;letter-spacing:-5.09021px;word-spacing:-0.0397109px;stroke-width:0.361006;filter:url(#filter8965)">
          <path
             d="m 132.71423,203.19209 q -0.76245,0 -1.24765,-0.41588 -0.41588,-0.41588 -0.41588,-1.17833 V 179.7641 q 0,-3.60431 -1.45559,-5.12921 -1.45558,-1.59421 -4.15881,-1.59421 -2.63392,0 -4.5747,1.10902 -1.87147,1.10901 -3.0498,2.28734 v 26.75505 h -5.33714 q -1.66353,0 -1.66353,-1.59421 v -33.68641 h 4.22813 q 0.76245,0 1.24764,0.34657 0.55451,0.34657 0.69314,1.38627 l 0.27725,2.14872 q 1.94079,-2.14872 4.43607,-3.39636 2.56461,-1.24765 6.0996,-1.24765 2.91117,0 5.26783,1.10902 2.42598,1.10902 3.67363,3.95087 1.66352,-1.87146 4.43607,-3.46568 2.77254,-1.59421 6.93136,-1.59421 4.85195,0 7.48586,2.91117 2.70323,2.84186 2.70323,9.1494 v 23.9825 h -5.40646 q -1.59421,0 -1.59421,-1.59421 V 179.7641 q 0,-3.60431 -1.45558,-5.12921 -1.45559,-1.59421 -4.15882,-1.59421 -2.77254,0 -4.71332,1.24764 -1.94079,1.17833 -3.11912,2.35666 0.20794,1.80216 0.20794,3.60431 v 22.9428 z"
             style="font-family:'HP Simplified';-inkscape-font-specification:'HP Simplified'"
             id="path10830" />
          <path
             d="m 167.34073,188.15104 q 0.13863,2.77255 0.62382,4.71333 0.4852,1.94078 1.59421,3.18842 1.17833,1.17833 3.11912,1.73284 1.94078,0.55451 4.99057,0.55451 2.70323,0 4.92127,-0.27725 2.21804,-0.27726 3.0498,-0.27726 1.59421,0 1.59421,1.5249 v 2.91117 q -1.66353,0.69314 -4.5747,1.17833 -2.84185,0.55451 -6.58479,0.55451 -3.95087,0 -6.86204,-0.97039 -2.91118,-0.97039 -4.85196,-3.11911 -1.87146,-2.21803 -2.77254,-5.68371 -0.90108,-3.535 -0.90108,-8.52558 0,-4.99058 0.90108,-8.52557 0.90108,-3.53499 2.70323,-5.75303 1.87147,-2.28735 4.5747,-3.25774 2.70323,-1.0397 6.30753,-1.0397 4.02019,0 6.5848,1.17833 2.5646,1.10902 4.02019,3.0498 1.45558,1.94078 2.01009,4.5747 0.55451,2.5646 0.55451,5.54508 0,2.0101 -0.20794,3.88156 -0.20794,1.87147 -0.55451,2.84186 z m 14.62517,-4.92126 q 0.0693,-0.69314 0.0693,-1.03971 0,-0.34657 0,-0.90107 0,-4.43607 -1.38627,-6.65411 -1.31696,-2.28735 -5.26783,-2.28735 -2.35667,0 -3.88157,0.76245 -1.52489,0.76245 -2.42597,2.14872 -0.90108,1.38627 -1.31696,3.46568 -0.34657,2.0101 -0.41588,4.50539 z"
             style="font-family:'HP Simplified';-inkscape-font-specification:'HP Simplified'"
             id="path10832" />
          <path
             d="m 192.47127,203.19209 q -1.66353,0 -1.66353,-1.59421 v -33.68641 h 4.22813 q 0.76245,0 1.24765,0.34657 0.55451,0.34657 0.69313,1.38627 l 0.27726,2.14872 q 4.29744,-4.64401 11.02086,-4.64401 5.68371,0 8.10969,3.32705 2.42598,3.25774 2.42598,8.73352 v 23.9825 h -5.33715 q -0.76245,0 -1.24765,-0.41588 -0.41588,-0.41588 -0.41588,-1.17833 V 179.7641 q 0,-3.60431 -1.5249,-5.12921 -1.5249,-1.59421 -4.43607,-1.59421 -2.84185,0 -4.85195,1.17833 -2.01009,1.10902 -3.18842,2.28735 v 26.68573 z"
             style="font-family:'HP Simplified';-inkscape-font-specification:'HP Simplified'"
             id="path10834" />
          <path
             d="m 239.15839,202.98415 q -1.59421,0.41588 -3.0498,0.62382 -1.38627,0.20795 -2.91117,0.20795 -4.99058,0 -7.27793,-2.21804 -2.21803,-2.21804 -2.21803,-7.00067 v -21.14065 h -2.42598 q -1.66352,0 -1.66352,-1.59421 v -3.95088 h 4.22813 l 0.34656,-9.14939 h 4.85195 q 1.66353,0 1.66353,1.59421 v 7.55518 h 6.79273 q 0.76245,0 1.17834,0.41588 0.48519,0.41588 0.48519,1.17833 v 3.95088 h -8.45626 v 20.79408 q 0,1.87147 0.62382,2.91117 0.62383,1.0397 2.49529,1.0397 1.17833,0 1.94078,0 0.83177,-0.0693 1.5249,-0.0693 1.87147,0 1.87147,1.59421 z"
             style="font-family:'HP Simplified';-inkscape-font-specification:'HP Simplified'"
             id="path10836" />
          <path
             d="m 266.29685,197.43906 q 2.21804,0.27726 4.92127,0.55451 2.70323,0.20794 5.26783,0.20794 4.5747,0 6.16891,-1.17833 1.59422,-1.17833 1.59422,-3.74293 0,-1.17833 -0.34657,-1.94078 -0.27726,-0.83177 -1.10902,-1.38627 -0.83176,-0.62383 -2.28735,-1.10902 -1.38627,-0.4852 -3.60431,-1.03971 -2.42597,-0.62382 -4.50538,-1.24764 -2.01009,-0.69314 -3.46568,-1.80215 -1.45558,-1.10902 -2.28735,-2.77255 -0.76245,-1.73284 -0.76245,-4.43607 0,-5.6144 3.25774,-7.97106 3.25774,-2.42598 9.1494,-2.42598 1.17833,0 2.5646,0.13863 1.38627,0.0693 2.70323,0.27725 1.31696,0.13863 2.42598,0.41588 1.17833,0.20795 1.94078,0.4852 0.76245,0.34657 1.0397,0.76245 0.34657,0.41588 0.34657,1.31696 v 2.98048 q -3.11911,-0.34657 -5.47578,-0.48519 -2.28734,-0.20794 -4.15881,-0.20794 -3.95088,0 -5.54509,1.0397 -1.5249,1.0397 -1.5249,3.32705 0,1.24765 0.41588,2.07941 0.41588,0.76245 1.31696,1.31696 0.90108,0.55451 2.35666,1.0397 1.45559,0.41589 3.46568,0.90108 2.35667,0.62382 4.36676,1.31696 2.01009,0.62382 3.46568,1.73284 1.45559,1.0397 2.21804,2.84186 0.83176,1.73284 0.83176,4.50538 0,3.0498 -0.97039,5.19852 -0.90108,2.07941 -2.63392,3.39637 -1.73284,1.31695 -4.15881,1.87146 -2.35667,0.55451 -5.26784,0.55451 -1.24764,0 -2.77254,-0.13862 -1.45559,-0.0693 -2.91117,-0.27726 -1.45559,-0.20794 -2.70323,-0.41588 -1.24765,-0.27726 -1.94078,-0.55451 -0.83177,-0.34657 -1.10902,-0.83176 -0.27726,-0.55451 -0.27726,-1.31696 z"
             style="font-family:'HP Simplified';-inkscape-font-specification:'HP Simplified'"
             id="path10838" />
        </g>
      </g>
    </g>
  </g>
</svg>
